<mxfile host="65bd71144e">
    <diagram id="atsPsOx0MsyYFQ1MaOYd" name="Page-1">
        <mxGraphModel dx="1199" dy="624" grid="0" gridSize="10" guides="1" tooltips="1" connect="1" arrows="1" fold="1" page="1" pageScale="1" pageWidth="827" pageHeight="1169" background="#ffffff" math="0" shadow="0">
            <root>
                <mxCell id="0"/>
                <mxCell id="1" parent="0"/>
                <mxCell id="2" value="Marque" style="shape=umlActor;verticalLabelPosition=bottom;verticalAlign=top;html=1;outlineConnect=0;strokeColor=#000000;fillColor=#1BA2E3;fontColor=#000000;" vertex="1" parent="1">
                    <mxGeometry x="77" y="237" width="39" height="81" as="geometry"/>
                </mxCell>
                <mxCell id="16" value="" style="rounded=0;whiteSpace=wrap;html=1;strokeColor=#000000;fontColor=#000000;fillColor=#1BA2E3;" vertex="1" parent="1">
                    <mxGeometry x="192" y="77" width="552" height="445" as="geometry"/>
                </mxCell>
                <mxCell id="17" value="System" style="rounded=0;whiteSpace=wrap;html=1;strokeColor=none;fontColor=#000000;fillColor=#1BA2E3;" vertex="1" parent="1">
                    <mxGeometry x="440" y="81" width="56" height="25" as="geometry"/>
                </mxCell>
                <mxCell id="18" value="" style="endArrow=none;html=1;fontColor=#000000;entryX=-0.003;entryY=0.382;entryDx=0;entryDy=0;entryPerimeter=0;strokeColor=#000000;" edge="1" parent="1">
                    <mxGeometry width="50" height="50" relative="1" as="geometry">
                        <mxPoint x="119" y="275" as="sourcePoint"/>
                        <mxPoint x="276.6579999999999" y="142.01" as="targetPoint"/>
                        <Array as="points">
                            <mxPoint x="218" y="275"/>
                            <mxPoint x="218" y="142"/>
                        </Array>
                    </mxGeometry>
                </mxCell>
                <mxCell id="19" value="" style="endArrow=none;html=1;strokeColor=#000000;fontColor=#000000;" edge="1" parent="1">
                    <mxGeometry width="50" height="50" relative="1" as="geometry">
                        <mxPoint x="122" y="276" as="sourcePoint"/>
                        <mxPoint x="276" y="394" as="targetPoint"/>
                        <Array as="points">
                            <mxPoint x="218" y="276"/>
                            <mxPoint x="218" y="394"/>
                        </Array>
                    </mxGeometry>
                </mxCell>
                <mxCell id="28" value="S'authentifier" style="ellipse;whiteSpace=wrap;html=1;strokeColor=#000000;fontColor=#000000;fillColor=#1BA2E3;" vertex="1" parent="1">
                    <mxGeometry x="579" y="245.5" width="108" height="50" as="geometry"/>
                </mxCell>
                <mxCell id="29" value="Publier une campagne" style="ellipse;whiteSpace=wrap;html=1;strokeColor=#000000;fontColor=#000000;fillColor=#1BA2E3;" vertex="1" parent="1">
                    <mxGeometry x="278" y="116" width="114" height="55" as="geometry"/>
                </mxCell>
                <mxCell id="30" value="Consulter la liste de influenceurs" style="ellipse;whiteSpace=wrap;html=1;strokeColor=#000000;fontColor=#000000;fillColor=#1BA2E3;" vertex="1" parent="1">
                    <mxGeometry x="268" y="353" width="134" height="65" as="geometry"/>
                </mxCell>
                <mxCell id="31" value="&amp;lt;&amp;lt;Include&amp;gt;&amp;gt;" style="endArrow=open;endSize=12;dashed=1;html=1;strokeColor=#000000;fontColor=#000000;labelBackgroundColor=#1BA2E3;strokeWidth=1;" edge="1" parent="1">
                    <mxGeometry width="160" relative="1" as="geometry">
                        <mxPoint x="392" y="141" as="sourcePoint"/>
                        <mxPoint x="630" y="246" as="targetPoint"/>
                        <Array as="points">
                            <mxPoint x="630" y="143"/>
                        </Array>
                    </mxGeometry>
                </mxCell>
                <mxCell id="32" value="&amp;lt;&amp;lt;Include&amp;gt;&amp;gt;" style="endArrow=open;endSize=12;dashed=1;html=1;strokeColor=#000000;fontColor=#000000;labelBackgroundColor=#1BA2E3;" edge="1" parent="1">
                    <mxGeometry width="160" relative="1" as="geometry">
                        <mxPoint x="404" y="388" as="sourcePoint"/>
                        <mxPoint x="632" y="297" as="targetPoint"/>
                        <Array as="points">
                            <mxPoint x="632" y="390"/>
                        </Array>
                    </mxGeometry>
                </mxCell>
            </root>
        </mxGraphModel>
    </diagram>
</mxfile>